<svg width="124" height="26" viewBox="0 0 124 26" fill="none" xmlns="http://www.w3.org/2000/svg">
<g clip-path="url(#clip0_3100_19357)">
<path d="M33.6582 15.8399H45.6643C46.2445 15.8399 46.7216 15.3603 46.7216 14.7646C46.7216 14.1844 46.2445 13.7074 45.6643 13.7074H36.1492C34.767 13.7074 33.6582 12.5831 33.6582 11.219C33.6582 9.83684 34.767 8.72803 36.1466 8.72803H48.1527V10.1411H36.1466C35.5483 10.1411 35.0713 10.6207 35.0713 11.2164C35.0713 11.7966 35.5483 12.2737 36.1466 12.2737H45.6618C47.0439 12.2737 48.1527 13.3979 48.1527 14.762C48.1527 16.1442 47.0439 17.253 45.6643 17.253H33.6582V15.8399Z" fill="white"/>
<path d="M50.9805 8.72803H52.3961V17.2556H50.9805V8.72803Z" fill="white"/>
<path d="M71.4501 10.4321V17.2913H70.037V10.4321C70.037 10.2078 69.7895 10.0711 69.5986 10.1871L64.2402 13.4826C63.6884 13.823 62.9922 13.823 62.4403 13.4826L57.0794 10.1871C56.8885 10.0711 56.6436 10.2078 56.6436 10.4321V17.2913H55.2305V10.4295C55.2305 9.06801 56.7338 8.24801 57.8787 8.98292L62.8787 12.1985C63.1624 12.3816 63.5259 12.3816 63.8096 12.1985L68.8044 8.98292C69.9493 8.24543 71.4527 9.06801 71.4553 10.427L71.4501 10.4321Z" fill="white"/>
<path d="M88.7797 11.2135C88.7797 12.5879 87.6657 13.7019 86.2913 13.7019H76.0206C75.8633 13.7019 75.7343 13.8308 75.7343 13.9907V17.2527H74.2852V13.9958C74.2852 13.0469 75.0536 12.2759 76.0025 12.2759H86.2965C86.887 12.2759 87.364 11.7963 87.364 11.2057C87.364 10.6152 86.887 10.1382 86.2965 10.1382H74.2852V8.7251H86.2939C87.6683 8.7251 88.7823 9.83907 88.7823 11.2135H88.7797Z" fill="white"/>
<path d="M110.347 12.2684H123.426V13.697H110.347V15.5459C110.347 15.7032 110.476 15.8321 110.634 15.8321H123.426V17.2452H110.652C109.703 17.2452 108.932 16.4768 108.932 15.5278V10.4402C108.932 9.49123 109.7 8.72021 110.649 8.72021H123.424V10.1333H110.631C110.474 10.1333 110.345 10.2622 110.345 10.4221V12.2684H110.347Z" fill="white"/>
<path d="M106.103 15.832H93.3074C93.1501 15.832 93.0211 15.7056 93.0211 15.5457V8.72266H91.6055V15.5303C91.6055 16.4792 92.3765 17.2502 93.3254 17.2502H106.103V15.832Z" fill="white"/>
<path d="M13.459 0.106934C6.33935 0.106934 0.568359 5.88051 0.568359 13.0027C0.568359 20.1223 6.34451 25.8959 13.4641 25.8933C20.5838 25.8933 26.3573 20.1172 26.3547 12.9975C26.3547 5.87535 20.5786 0.106934 13.459 0.106934ZM13.4616 24.4648C7.131 24.4648 1.99693 19.3307 1.99693 13.0001C1.99693 6.66699 7.131 1.5355 13.4616 1.5355C19.7921 1.5355 24.9262 6.66699 24.9262 13.0001C24.9262 19.3307 19.7921 24.4648 13.4616 24.4648Z" fill="white"/>
<path d="M13.8172 10.8775V9.13434C13.8172 8.89711 13.6238 8.69855 13.3866 8.70371C12.68 8.7166 11.9683 8.90227 11.3134 9.27875C10.3103 9.86152 9.69141 10.9368 9.69141 12.0972V14.2736C9.69141 14.5108 9.8848 14.7042 10.122 14.7042H12.6491C12.8863 14.7042 13.0797 14.895 13.0797 15.1348V16.8677C13.0797 17.1049 13.2731 17.3009 13.5104 17.2983C14.2247 17.2906 14.9492 17.1049 15.6145 16.7207C16.6176 16.1379 17.2365 15.0626 17.2365 13.9022V11.7362C17.2365 11.499 17.0431 11.3056 16.8059 11.3056H14.2504C14.0132 11.3056 13.8198 11.1147 13.8198 10.8749L13.8172 10.8775Z" fill="white"/>
</g>
<defs>
<clipPath id="clip0_3100_19357">
<rect width="122.862" height="25.7864" fill="white" transform="translate(0.568359 0.106934)"/>
</clipPath>
</defs>
</svg>
